<svg width="300" height="245" viewBox="0 0 299 245" fill="none" xmlns="http://www.w3.org/2000/svg">
<path d="M0 161.005C0 199.047 30.1336 229.912 67.275 229.912H239.2C272.23 229.912 299 202.493 299 168.662C299 139.041 278.444 114.302 251.16 108.656C253.075 103.536 254.15 97.937 254.15 92.0991C254.15 66.7378 234.061 46.1616 209.3 46.1616C200.096 46.1616 191.5 49.0327 184.399 53.9135C171.458 30.9448 147.304 15.5366 119.6 15.5366C78.3006 15.5366 44.85 49.7983 44.85 92.0991C44.85 93.3911 44.8967 94.6831 44.9434 95.9751C18.7809 105.402 0 130.955 0 161.005Z" fill="white"/>
</svg>
