<svg width="300" height="240" viewBox="0 0 300 240" fill="none" xmlns="http://www.w3.org/2000/svg">
<g clip-path="url(#clip0_2_74)">
<path d="M15 67.5C15 104.766 45.2344 135 82.5 135H140.297C150.891 144.328 164.766 150 180 150C195.234 150 209.109 144.328 219.703 135H232.5C261.516 135 285 111.516 285 82.5C285 53.4844 261.516 30 232.5 30C227.484 30 222.656 30.7031 218.063 32.0156C208.031 12.9844 188.016 0 165 0C149.719 0 135.75 5.71875 125.109 15.1406C113.484 5.67187 98.6719 0 82.5 0C45.2344 0 15 30.2344 15 67.5ZM288.75 172.5H131.25C125.016 172.5 120 177.516 120 183.75C120 189.984 125.016 195 131.25 195H288.75C294.984 195 300 189.984 300 183.75C300 177.516 294.984 172.5 288.75 172.5ZM258.75 217.5H206.25C200.016 217.5 195 222.516 195 228.75C195 234.984 200.016 240 206.25 240H258.75C264.984 240 270 234.984 270 228.75C270 222.516 264.984 217.5 258.75 217.5ZM168.75 217.5H11.25C5.01562 217.5 0 222.516 0 228.75C0 234.984 5.01562 240 11.25 240H168.75C174.984 240 180 234.984 180 228.75C180 222.516 174.984 217.5 168.75 217.5ZM105 183.75C105 177.516 99.9844 172.5 93.75 172.5H45C38.7656 172.5 33.75 177.516 33.75 183.75C33.75 189.984 38.7656 195 45 195H93.75C99.9844 195 105 189.984 105 183.75Z" fill="#666565"/>
</g>
<defs>
<clipPath id="clip0_2_74">
<rect width="300" height="240" fill="white"/>
</clipPath>
</defs>
</svg>
