<svg width="300" height="300" viewBox="0 0 300 293" fill="none" xmlns="http://www.w3.org/2000/svg">
<circle cx="103.97" cy="103.97" r="103.97" fill="#FFF856"/>
<g clip-path="url(#clip0_1_10)">
<path d="M33.2703 219.929C33.2703 253.023 60.0945 279.874 93.1569 279.874H246.201C275.603 279.874 299.433 256.021 299.433 226.589C299.433 200.821 281.134 179.299 256.847 174.387C258.552 169.933 259.509 165.062 259.509 159.984C259.509 137.92 241.626 120.02 219.584 120.02C211.391 120.02 203.739 122.518 197.418 126.764C185.898 106.782 164.397 93.3779 139.735 93.3779C102.972 93.3779 73.1947 123.184 73.1947 159.984C73.1947 161.108 73.2363 162.232 73.2779 163.356C49.9887 171.556 33.2703 193.786 33.2703 219.929Z" fill="white"/>
</g>
<defs>
<clipPath id="clip0_1_10">
<rect width="266.163" height="213.138" fill="white" transform="translate(33.2703 79.8618)"/>
</clipPath>
</defs>
</svg>

