<svg width="300" height="300" viewBox="0 0 300 300" fill="none" xmlns="http://www.w3.org/2000/svg">
<g clip-path="url(#clip0_2_71)">
<path d="M0 131.25C0 162.305 25.1953 187.5 56.25 187.5H83.9062L169.922 118.652C180.234 110.391 194.883 110.449 205.195 118.77C215.508 127.09 218.555 141.387 212.695 153.223L195.527 187.5H206.25H243.75C274.805 187.5 300 162.305 300 131.25C300 100.195 274.805 75 243.75 75C243.457 75 243.105 75 242.812 75C243.457 71.9531 243.75 68.8477 243.75 65.625C243.75 39.7266 222.773 18.75 196.875 18.75C182.637 18.75 169.863 25.1367 161.25 35.1562C150.293 14.2383 128.379 0 103.125 0C66.8555 0 37.5 29.3555 37.5 65.625C37.5 69.7852 37.9102 73.8867 38.6133 77.8125C16.1719 85.1953 0 106.348 0 131.25ZM193.418 133.359C190.02 130.605 185.098 130.605 181.641 133.301L87.8906 208.301C84.7852 210.762 83.5547 214.98 84.9023 218.73C86.25 222.48 89.7656 225 93.75 225H134.824L104.121 286.406C102.129 290.332 103.184 295.137 106.641 297.891C110.098 300.645 114.961 300.645 118.418 297.949L212.168 222.949C215.273 220.488 216.504 216.27 215.156 212.52C213.809 208.77 210.293 206.25 206.309 206.25H165.234L195.937 144.844C197.93 140.918 196.875 136.113 193.477 133.359H193.418Z" fill="#FFF856"/>
</g>
<path fill-rule="evenodd" clip-rule="evenodd" d="M56.25 187.5C25.1953 187.5 0 162.305 0 131.25C0 106.348 16.1719 85.1953 38.6133 77.8125C37.9102 73.8867 37.5 69.7852 37.5 65.625C37.5 29.3555 66.8555 0 103.125 0C128.379 0 150.293 14.2383 161.25 35.1562C169.863 25.1367 182.637 18.75 196.875 18.75C222.773 18.75 243.75 39.7266 243.75 65.625C243.75 68.8477 243.457 71.9531 242.812 75H243.75C274.805 75 300 100.195 300 131.25C300 162.305 274.805 187.5 243.75 187.5H206.25H195.527L212.695 153.223C218.555 141.387 215.508 127.09 205.195 118.77C194.883 110.449 180.234 110.391 169.922 118.652L83.9062 187.5H56.25Z" fill="white"/>
<defs>
<clipPath id="clip0_2_71">
<rect width="300" height="300" fill="white"/>
</clipPath>
</defs>
</svg>
