<svg width="300" height="300" viewBox="0 0 300 300" fill="none" xmlns="http://www.w3.org/2000/svg">
<g clip-path="url(#clip0_2_42)">
<path d="M56.25 187.5C25.1953 187.5 2.79454e-05 162.305 2.79454e-05 131.25C2.79454e-05 106.348 16.1719 85.1953 38.6133 77.8125C37.9102 73.8867 37.5 69.7852 37.5 65.625C37.5 29.3555 66.8555 0 103.125 0C128.379 0 150.293 14.2383 161.25 35.1562C169.863 25.1367 182.637 18.75 196.875 18.75C222.773 18.75 243.75 39.7266 243.75 65.625C243.75 68.8477 243.398 71.9531 242.813 75C243.105 75 243.457 75 243.75 75C274.805 75 300 100.195 300 131.25C300 162.305 274.805 187.5 243.75 187.5H56.25ZM47.7539 207.363C54.9024 210.41 58.1836 218.672 55.1367 225.82L27.0117 291.445C23.9649 298.594 15.7032 301.875 8.55472 298.828C1.40628 295.781 -1.93357 287.52 1.11331 280.371L29.2383 214.746C32.2852 207.598 40.5469 204.316 47.6953 207.363H47.7539ZM118.066 207.363C125.215 210.41 128.496 218.672 125.449 225.82L97.3243 291.445C94.2774 298.594 86.0157 301.875 78.8672 298.828C71.7188 295.781 68.4375 287.52 71.4844 280.371L99.6094 214.746C102.656 207.598 110.918 204.316 118.066 207.363ZM261.387 225.82L233.262 291.445C230.215 298.594 221.953 301.875 214.805 298.828C207.656 295.781 204.375 287.52 207.422 280.371L235.547 214.746C238.594 207.598 246.856 204.316 254.004 207.363C261.152 210.41 264.434 218.672 261.387 225.82ZM183.691 207.363C190.84 210.41 194.121 218.672 191.074 225.82L162.949 291.445C159.902 298.594 151.641 301.875 144.492 298.828C137.344 295.781 134.063 287.52 137.109 280.371L165.234 214.746C168.281 207.598 176.543 204.316 183.691 207.363Z" fill="white"/>
</g>
<path fill-rule="evenodd" clip-rule="evenodd" d="M55.1367 225.82C58.1836 218.672 54.9024 210.41 47.7539 207.363H47.6953C40.5469 204.316 32.2852 207.598 29.2383 214.746L1.11331 280.371C-1.93357 287.52 1.40628 295.781 8.55472 298.828C15.7032 301.875 23.9649 298.594 27.0117 291.445L55.1367 225.82ZM125.449 225.82C128.496 218.672 125.215 210.41 118.066 207.363C110.918 204.316 102.656 207.598 99.6094 214.746L71.4844 280.371C68.4375 287.52 71.7188 295.781 78.8672 298.828C86.0157 301.875 94.2774 298.594 97.3243 291.445L125.449 225.82ZM233.262 291.445L261.387 225.82C264.434 218.672 261.152 210.41 254.004 207.363C246.855 204.316 238.594 207.598 235.547 214.746L207.422 280.371C204.375 287.52 207.656 295.781 214.805 298.828C221.953 301.875 230.215 298.594 233.262 291.445ZM191.074 225.82C194.121 218.672 190.84 210.41 183.691 207.363C176.543 204.316 168.281 207.598 165.234 214.746L137.109 280.371C134.063 287.52 137.344 295.781 144.492 298.828C151.641 301.875 159.902 298.594 162.949 291.445L191.074 225.82Z" fill="#62D0FF"/>
<defs>
<clipPath id="clip0_2_42">
<rect width="300" height="300" fill="white"/>
</clipPath>
</defs>
</svg>
