<svg width="300" height="218" viewBox="0 0 300 218" fill="none" xmlns="http://www.w3.org/2000/svg">
<path d="M61 128.804C61 159.238 85.0867 183.929 114.775 183.929H252.2C278.602 183.929 300 161.994 300 134.929C300 111.233 283.569 91.4418 261.76 86.9246C263.291 82.8285 264.15 78.3496 264.15 73.6793C264.15 53.3902 248.092 36.9293 228.3 36.9293C220.943 36.9293 214.072 39.2261 208.396 43.1308C198.052 24.7558 178.745 12.4293 156.6 12.4293C123.588 12.4293 96.85 39.8386 96.85 73.6793C96.85 74.7129 96.8873 75.7465 96.9247 76.7801C76.0122 84.3215 61 104.764 61 128.804Z" fill="#666565"/>
<path d="M0 150.804C0 181.238 24.0867 205.929 53.775 205.929H191.2C217.602 205.929 239 183.994 239 156.929C239 133.233 222.569 113.442 200.76 108.925C202.291 104.828 203.15 100.35 203.15 95.6793C203.15 75.3902 187.092 58.9293 167.3 58.9293C159.943 58.9293 153.072 61.2261 147.396 65.1308C137.052 46.7558 117.745 34.4293 95.6 34.4293C62.5881 34.4293 35.85 61.8386 35.85 95.6793C35.85 96.7129 35.8873 97.7465 35.9247 98.7801C15.0122 106.321 0 126.764 0 150.804Z" fill="white"/>
</svg>
