<svg width="263" height="300" viewBox="0 0 263 300" fill="none" xmlns="http://www.w3.org/2000/svg">
<g clip-path="url(#clip0_2_72)">
<path d="M131.5 0C141.891 0 150.285 8.37891 150.285 18.75V36.3867L159.091 27.5977C164.61 22.0898 173.533 22.0898 178.992 27.5977C184.452 33.1055 184.511 42.0117 178.992 47.4609L150.227 76.1719V117.363L186.272 96.3867L196.663 57.6563C198.659 50.1563 206.408 45.7031 213.922 47.6953C221.436 49.6875 225.898 57.4219 223.902 64.9219L220.849 76.2305L234.704 68.1445C243.686 62.9297 255.192 65.9766 260.417 74.8828C265.641 83.7891 262.648 95.332 253.666 100.547L238.813 109.219L251.552 112.617C259.066 114.609 263.528 122.344 261.532 129.844C259.536 137.344 251.787 141.797 244.273 139.805L204.529 129.199L168.778 150L204.529 170.801L244.273 160.195C251.787 158.203 259.536 162.656 261.532 170.156C263.528 177.656 259.066 185.391 251.552 187.383L238.813 190.781L253.666 199.453C262.648 204.668 265.641 216.152 260.417 225.117C255.192 234.082 243.686 237.07 234.704 231.855L220.849 223.77L223.902 235.078C225.898 242.578 221.436 250.313 213.922 252.305C206.408 254.297 198.659 249.844 196.663 242.344L186.272 203.613L150.285 182.637V223.828L179.051 252.539C184.569 258.047 184.569 266.953 179.051 272.402C173.533 277.852 164.61 277.91 159.15 272.402L150.344 263.613V281.25C150.344 291.621 141.949 300 131.558 300C121.168 300 112.773 291.621 112.773 281.25V263.613L103.967 272.402C98.4486 277.91 89.5254 277.91 84.0658 272.402C78.6062 266.895 78.5475 257.988 84.0658 252.539L112.831 223.828V182.637L76.7864 203.613L66.3955 242.344C64.3995 249.844 56.6504 254.297 49.1361 252.305C41.6218 250.313 37.1602 242.578 39.1562 235.078L42.2089 223.77L28.237 231.797C19.2551 237.012 7.74885 233.965 2.52408 225.059C-2.7007 216.152 0.351978 204.609 9.27519 199.395L24.1276 190.723L11.3886 187.324C3.8743 185.332 -0.587307 177.598 1.40867 170.098C3.40466 162.598 11.1538 158.145 18.668 160.137L58.4116 170.742L94.2218 150L58.4703 129.199L18.7268 139.805C11.2125 141.797 3.46336 137.344 1.46738 129.844C-0.528602 122.344 3.933 114.609 11.4473 112.617L24.1864 109.219L9.3339 100.547C0.351978 95.332 -2.64199 83.8477 2.58278 74.9414C7.80756 66.0352 19.3138 62.9883 28.2957 68.2031L42.1502 76.2891L39.0975 64.9805C37.1015 57.4805 41.5631 49.7461 49.0774 47.7539C56.5917 45.7617 64.3408 50.2148 66.3368 57.7148L76.7276 96.4453L112.714 117.363V76.1719L83.9484 47.4609C78.4301 41.9531 78.4301 33.0469 83.9484 27.5977C89.4667 22.1484 98.3899 22.0898 103.85 27.5977L112.655 36.3867L112.714 18.75C112.714 8.37891 121.109 0 131.5 0Z" fill="#62D0FF"/>
</g>
<defs>
<clipPath id="clip0_2_72">
<rect width="263" height="300" fill="white"/>
</clipPath>
</defs>
</svg>
